<svg width="980" height="420" viewBox="0 0 980 420" fill="none" xmlns="http://www.w3.org/2000/svg" role="img" aria-labelledby="title desc">
  <title id="title">VibeBus topology</title>
  <desc id="desc">Multiple CLI agents connect to one local file-backed VibeBus MCP bus.</desc>
  <defs>
    <linearGradient id="panel" x1="0" y1="0" x2="980" y2="420" gradientUnits="userSpaceOnUse">
      <stop stop-color="#111827"/>
      <stop offset="1" stop-color="#041016"/>
    </linearGradient>
    <linearGradient id="hub" x1="354" y1="96" x2="626" y2="324" gradientUnits="userSpaceOnUse">
      <stop stop-color="#83F7C6"/>
      <stop offset="0.52" stop-color="#62D6FF"/>
      <stop offset="1" stop-color="#FFD166"/>
    </linearGradient>
  </defs>
  <rect width="980" height="420" rx="28" fill="url(#panel)"/>
  <g stroke="#5EEAD4" stroke-width="4" stroke-linecap="round" opacity="0.72">
    <path d="M245 108L407 178"/>
    <path d="M245 210H374"/>
    <path d="M245 312L407 242"/>
    <path d="M735 108L573 178"/>
    <path d="M735 210H606"/>
    <path d="M735 312L573 242"/>
  </g>
  <rect x="374" y="126" width="232" height="168" rx="28" fill="#071114" stroke="url(#hub)" stroke-width="6"/>
  <text x="419" y="189" fill="#F8FAFC" font-family="ui-monospace, SFMono-Regular, Menlo, Consolas, monospace" font-size="34" font-weight="800">VibeBus</text>
  <text x="413" y="230" fill="#B9C7D9" font-family="ui-monospace, SFMono-Regular, Menlo, Consolas, monospace" font-size="19">shared MCP state</text>
  <text x="424" y="260" fill="#83F7C6" font-family="ui-monospace, SFMono-Regular, Menlo, Consolas, monospace" font-size="17">inbox tasks decisions</text>
  <g font-family="ui-monospace, SFMono-Regular, Menlo, Consolas, monospace" font-size="22" font-weight="700">
    <rect x="58" y="70" width="190" height="76" rx="18" fill="#172033" stroke="#83F7C6" stroke-width="3"/>
    <text x="91" y="118" fill="#F8FAFC">Claude</text>
    <rect x="58" y="172" width="190" height="76" rx="18" fill="#172033" stroke="#62D6FF" stroke-width="3"/>
    <text x="99" y="220" fill="#F8FAFC">Codex</text>
    <rect x="58" y="274" width="190" height="76" rx="18" fill="#172033" stroke="#FFD166" stroke-width="3"/>
    <text x="98" y="322" fill="#F8FAFC">Gemini</text>
    <rect x="732" y="70" width="190" height="76" rx="18" fill="#172033" stroke="#FF6B6B" stroke-width="3"/>
    <text x="759" y="118" fill="#F8FAFC">Antigrav</text>
    <rect x="732" y="172" width="190" height="76" rx="18" fill="#172033" stroke="#C084FC" stroke-width="3"/>
    <text x="784" y="220" fill="#F8FAFC">Grok</text>
    <rect x="732" y="274" width="190" height="76" rx="18" fill="#172033" stroke="#94A3B8" stroke-width="3"/>
    <text x="778" y="322" fill="#F8FAFC">More...</text>
  </g>
</svg>
